<svg version="1.1" xmlns="http://www.w3.org/2000/svg" xmlns:xlink="http://www.w3.org/1999/xlink" width="1059" height="779"><defs/><g><g transform="translate(-182,-14) scale(1,1)"><rect fill="#C0C0C0" stroke="none" x="583" y="215" width="192" height="223" opacity="0.2"/></g><g transform="translate(-182,-14) scale(1,1)"><rect fill="#ffffff" stroke="none" x="576" y="208" width="192" height="223"/></g><g transform="translate(-182,-14) scale(1,1)"><path fill="none" stroke="#000000" d="M 576 208 L 768 208 L 768 431 L 576 431 L 576 208 Z Z" stroke-miterlimit="10"/></g><g transform="translate(-182,-14) scale(1,1)"><path fill="none" stroke="#000000" d="M 576 233 L 768 233" stroke-miterlimit="10"/></g><g transform="translate(-182,-14) scale(1,1)"><path fill="none" stroke="#000000" d="M 576 346 L 768 346" stroke-miterlimit="10"/></g><g transform="translate(-182,-14) scale(1,1)"><g><path fill="none" stroke="none"/><text fill="#000000" stroke="none" font-family="Arial" font-size="13px" font-style="normal" font-weight="bold" text-decoration="none" x="654.29638671875" y="227.5">player</text></g></g><g transform="translate(-182,-14) scale(1,1)"><g><path fill="none" stroke="none"/><text fill="#000000" stroke="none" font-family="Arial" font-size="13px" font-style="normal" font-weight="normal" text-decoration="none" x="581" y="250.5">-timebyRound: date</text></g></g><g transform="translate(-182,-14) scale(1,1)"><g><path fill="none" stroke="none"/><text fill="#000000" stroke="none" font-family="Arial" font-size="13px" font-style="normal" font-weight="normal" text-decoration="none" x="581" y="265.5">-maxLetter: int</text></g></g><g transform="translate(-182,-14) scale(1,1)"><g><path fill="none" stroke="none"/><text fill="#000000" stroke="none" font-family="Arial" font-size="13px" font-style="normal" font-weight="normal" text-decoration="none" x="581" y="280.5">-lastName: string</text></g></g><g transform="translate(-182,-14) scale(1,1)"><g><path fill="none" stroke="none"/><text fill="#000000" stroke="none" font-family="Arial" font-size="13px" font-style="normal" font-weight="normal" text-decoration="none" x="581" y="295.5">-firstName: string</text></g></g><g transform="translate(-182,-14) scale(1,1)"><g><path fill="none" stroke="none"/><text fill="#000000" stroke="none" font-family="Arial" font-size="13px" font-style="normal" font-weight="normal" text-decoration="none" x="581" y="310.5">-scores: int</text></g></g><g transform="translate(-182,-14) scale(1,1)"><g><path fill="none" stroke="none"/><text fill="#000000" stroke="none" font-family="Arial" font-size="13px" font-style="normal" font-weight="normal" text-decoration="none" x="581" y="325.5">-hand: int</text></g></g><g transform="translate(-182,-14) scale(1,1)"><g><path fill="none" stroke="none"/><text fill="#000000" stroke="none" font-family="Arial" font-size="13px" font-style="normal" font-weight="normal" text-decoration="none" x="581" y="340.5">-remainingTime: date</text></g></g><g transform="translate(-182,-14) scale(1,1)"><g><path fill="none" stroke="none"/><text fill="#000000" stroke="none" font-family="Arial" font-size="13px" font-style="normal" font-weight="normal" text-decoration="none" x="581" y="363.5">+setscore(): int</text></g></g><g transform="translate(-182,-14) scale(1,1)"><g><path fill="none" stroke="none"/><text fill="#000000" stroke="none" font-family="Arial" font-size="13px" font-style="normal" font-weight="normal" text-decoration="none" x="581" y="378.5">+sethand(): char</text></g></g><g transform="translate(-182,-14) scale(1,1)"><g><path fill="none" stroke="none"/><text fill="#000000" stroke="none" font-family="Arial" font-size="13px" font-style="normal" font-weight="normal" text-decoration="none" x="581" y="393.5">+setremainingTime(): date</text></g></g><g transform="translate(-182,-14) scale(1,1)"><rect fill="#C0C0C0" stroke="none" x="239" y="71" width="223" height="199" opacity="0.2"/></g><g transform="translate(-182,-14) scale(1,1)"><rect fill="#ffffff" stroke="none" x="232" y="64" width="223" height="199"/></g><g transform="translate(-182,-14) scale(1,1)"><path fill="none" stroke="#000000" d="M 232 64 L 455 64 L 455 263 L 232 263 L 232 64 Z Z" stroke-miterlimit="10"/></g><g transform="translate(-182,-14) scale(1,1)"><path fill="none" stroke="#000000" d="M 232 89 L 455 89" stroke-miterlimit="10"/></g><g transform="translate(-182,-14) scale(1,1)"><path fill="none" stroke="#000000" d="M 232 142 L 455 142" stroke-miterlimit="10"/></g><g transform="translate(-182,-14) scale(1,1)"><g><path fill="none" stroke="none"/><text fill="#000000" stroke="none" font-family="Arial" font-size="13px" font-style="normal" font-weight="bold" text-decoration="none" x="329.049560546875" y="83.5">letter</text></g></g><g transform="translate(-182,-14) scale(1,1)"><g><path fill="none" stroke="none"/><text fill="#000000" stroke="none" font-family="Arial" font-size="13px" font-style="normal" font-weight="normal" text-decoration="none" x="237" y="106.5">-letter[][]: string</text></g></g><g transform="translate(-182,-14) scale(1,1)"><g><path fill="none" stroke="none"/><text fill="#000000" stroke="none" font-family="Arial" font-size="13px" font-style="normal" font-weight="normal" text-decoration="none" x="237" y="121.5">-point: int</text></g></g><g transform="translate(-182,-14) scale(1,1)"><g><path fill="none" stroke="none"/><text fill="#000000" stroke="none" font-family="Arial" font-size="13px" font-style="normal" font-weight="normal" text-decoration="none" x="237" y="136.5">-name: string</text></g></g><g transform="translate(-182,-14) scale(1,1)"><g><path fill="none" stroke="none"/><text fill="#000000" stroke="none" font-family="Arial" font-size="13px" font-style="normal" font-weight="normal" text-decoration="none" x="237" y="159.5">+getamountletter(): int</text></g></g><g transform="translate(-182,-14) scale(1,1)"><g><path fill="none" stroke="none"/><text fill="#000000" stroke="none" font-family="Arial" font-size="13px" font-style="normal" font-weight="normal" text-decoration="none" x="237" y="174.5">+getpoint(): int</text></g></g><g transform="translate(-182,-14) scale(1,1)"><g><path fill="none" stroke="none"/><text fill="#000000" stroke="none" font-family="Arial" font-size="13px" font-style="normal" font-weight="normal" text-decoration="none" x="237" y="189.5">+getname(): string</text></g></g><g transform="translate(-182,-14) scale(1,1)"><rect fill="#C0C0C0" stroke="none" x="279" y="599" width="239" height="191" opacity="0.2"/></g><g transform="translate(-182,-14) scale(1,1)"><rect fill="#ffffff" stroke="none" x="272" y="592" width="239" height="191"/></g><g transform="translate(-182,-14) scale(1,1)"><path fill="none" stroke="#000000" d="M 272 592 L 511 592 L 511 783 L 272 783 L 272 592 Z Z" stroke-miterlimit="10"/></g><g transform="translate(-182,-14) scale(1,1)"><path fill="none" stroke="#000000" d="M 272 617 L 511 617" stroke-miterlimit="10"/></g><g transform="translate(-182,-14) scale(1,1)"><path fill="none" stroke="#000000" d="M 272 715 L 511 715" stroke-miterlimit="10"/></g><g transform="translate(-182,-14) scale(1,1)"><g><path fill="none" stroke="none"/><text fill="#000000" stroke="none" font-family="Arial" font-size="13px" font-style="normal" font-weight="bold" text-decoration="none" x="377.405029296875" y="611.5">boxe</text></g></g><g transform="translate(-182,-14) scale(1,1)"><g><path fill="none" stroke="none"/><text fill="#000000" stroke="none" font-family="Arial" font-size="13px" font-style="normal" font-weight="normal" text-decoration="none" x="277" y="634.5">-boxesUsed: string</text></g></g><g transform="translate(-182,-14) scale(1,1)"><g><path fill="none" stroke="none"/><text fill="#000000" stroke="none" font-family="Arial" font-size="13px" font-style="normal" font-weight="normal" text-decoration="none" x="277" y="649.5">-boxeSimpleAccount: string</text></g></g><g transform="translate(-182,-14) scale(1,1)"><g><path fill="none" stroke="none"/><text fill="#000000" stroke="none" font-family="Arial" font-size="13px" font-style="normal" font-weight="normal" text-decoration="none" x="277" y="664.5">-boxeDoubleAccount: string</text></g></g><g transform="translate(-182,-14) scale(1,1)"><g><path fill="none" stroke="none"/><text fill="#000000" stroke="none" font-family="Arial" font-size="13px" font-style="normal" font-weight="normal" text-decoration="none" x="277" y="679.5">-boxeTripleAccount: string</text></g></g><g transform="translate(-182,-14) scale(1,1)"><g><path fill="none" stroke="none"/><text fill="#000000" stroke="none" font-family="Arial" font-size="13px" font-style="normal" font-weight="normal" text-decoration="none" x="277" y="694.5">-letterDoubleAccount: string</text></g></g><g transform="translate(-182,-14) scale(1,1)"><g><path fill="none" stroke="none"/><text fill="#000000" stroke="none" font-family="Arial" font-size="13px" font-style="normal" font-weight="normal" text-decoration="none" x="277" y="709.5">-letterTripleAccount: string</text></g></g><g transform="translate(-182,-14) scale(1,1)"><g><path fill="none" stroke="none"/><text fill="#000000" stroke="none" font-family="Arial" font-size="13px" font-style="normal" font-weight="normal" text-decoration="none" x="277" y="732.5">+setboxUsed(): int</text></g></g><g transform="translate(-182,-14) scale(1,1)"><g><path fill="none" stroke="none"/><text fill="#000000" stroke="none" font-family="Arial" font-size="13px" font-style="normal" font-weight="normal" text-decoration="none" x="277" y="747.5">+setlettersOnTray(): string</text></g></g><g transform="translate(-182,-14) scale(1,1)"><rect fill="#C0C0C0" stroke="none" x="1007" y="439" width="231" height="151" opacity="0.2"/></g><g transform="translate(-182,-14) scale(1,1)"><rect fill="#ffffff" stroke="none" x="1000" y="432" width="231" height="151"/></g><g transform="translate(-182,-14) scale(1,1)"><path fill="none" stroke="#000000" d="M 1000 432 L 1231 432 L 1231 583 L 1000 583 L 1000 432 Z Z" stroke-miterlimit="10"/></g><g transform="translate(-182,-14) scale(1,1)"><path fill="none" stroke="#000000" d="M 1000 457 L 1231 457" stroke-miterlimit="10"/></g><g transform="translate(-182,-14) scale(1,1)"><path fill="none" stroke="#000000" d="M 1000 480 L 1231 480" stroke-miterlimit="10"/></g><g transform="translate(-182,-14) scale(1,1)"><g><path fill="none" stroke="none"/><text fill="#000000" stroke="none" font-family="Arial" font-size="13px" font-style="normal" font-weight="bold" text-decoration="none" x="1087.681396484375" y="451.5">dictionary</text></g></g><g transform="translate(-182,-14) scale(1,1)"><g><path fill="none" stroke="none"/><text fill="#000000" stroke="none" font-family="Arial" font-size="13px" font-style="normal" font-weight="normal" text-decoration="none" x="1005" y="474.5">-words: string</text></g></g><g transform="translate(-182,-14) scale(1,1)"><g><path fill="none" stroke="none"/><text fill="#000000" stroke="none" font-family="Arial" font-size="13px" font-style="normal" font-weight="normal" text-decoration="none" x="1005" y="497.5">+CheckWords(): bool</text></g></g><g transform="translate(-182,-14) scale(1,1)"><path fill="none" stroke="#000000" d="M 624 208 L 624 168 L 455 168" stroke-miterlimit="10"/></g><g transform="translate(-182,-14) scale(1,1)"><path fill="none" stroke="#000000" d="M 465.16267485762415 163.790482243984 L 455 168 L 465.16267485762415 172.209517756016" stroke-miterlimit="10"/></g><g transform="translate(-182,-14) scale(1,1)"><path fill="none" stroke="#000000" d="M 768 296 L 888 296 L 888 507 L 1000 507" stroke-miterlimit="10"/></g><g transform="translate(-182,-14) scale(1,1)"><path fill="none" stroke="#000000" d="M 989.8373251423759 511.209517756016 L 1000 507 L 989.8373251423758 502.790482243984" stroke-miterlimit="10"/></g><g transform="translate(-182,-14) scale(1,1)"><rect fill="#C0C0C0" stroke="none" x="983" y="31" width="239" height="183" opacity="0.2"/></g><g transform="translate(-182,-14) scale(1,1)"><rect fill="#ffffff" stroke="none" x="976" y="24" width="239" height="183"/></g><g transform="translate(-182,-14) scale(1,1)"><path fill="none" stroke="#000000" d="M 976 24 L 1215 24 L 1215 207 L 976 207 L 976 24 Z Z" stroke-miterlimit="10"/></g><g transform="translate(-182,-14) scale(1,1)"><path fill="none" stroke="#000000" d="M 976 49 L 1215 49" stroke-miterlimit="10"/></g><g transform="translate(-182,-14) scale(1,1)"><path fill="none" stroke="#000000" d="M 976 102 L 1215 102" stroke-miterlimit="10"/></g><g transform="translate(-182,-14) scale(1,1)"><g><path fill="none" stroke="none"/><text fill="#000000" stroke="none" font-family="Arial" font-size="13px" font-style="normal" font-weight="bold" text-decoration="none" x="1074.905029296875" y="43.5">actions</text></g></g><g transform="translate(-182,-14) scale(1,1)"><g><path fill="none" stroke="none"/><text fill="#000000" stroke="none" font-family="Arial" font-size="13px" font-style="normal" font-weight="normal" text-decoration="none" x="981" y="66.5">-draw: bool</text></g></g><g transform="translate(-182,-14) scale(1,1)"><g><path fill="none" stroke="none"/><text fill="#000000" stroke="none" font-family="Arial" font-size="13px" font-style="normal" font-weight="normal" text-decoration="none" x="981" y="81.5">-PutHisWords: string</text></g></g><g transform="translate(-182,-14) scale(1,1)"><g><path fill="none" stroke="none"/><text fill="#000000" stroke="none" font-family="Arial" font-size="13px" font-style="normal" font-weight="normal" text-decoration="none" x="981" y="96.5">-skipHisTurn: bool</text></g></g><g transform="translate(-182,-14) scale(1,1)"><g><path fill="none" stroke="none"/><text fill="#000000" stroke="none" font-family="Arial" font-size="13px" font-style="normal" font-weight="normal" text-decoration="none" x="981" y="119.5">+getputWords(vallues): string</text></g></g><g transform="translate(-182,-14) scale(1,1)"><g><path fill="none" stroke="none"/><text fill="#000000" stroke="none" font-family="Arial" font-size="13px" font-style="normal" font-weight="normal" text-decoration="none" x="981" y="134.5">+getdraw(): char</text></g></g><g transform="translate(-182,-14) scale(1,1)"><path fill="none" stroke="#000000" d="M 687 208 L 687 188 L 812 188 L 812 112 L 976 112" stroke-miterlimit="10"/></g><g transform="translate(-182,-14) scale(1,1)"><path fill="none" stroke="#000000" d="M 965.8373251423759 116.20951775601598 L 976 112 L 965.8373251423758 107.79048224398402" stroke-miterlimit="10"/></g><g transform="translate(-182,-14) scale(1,1)"><rect fill="#C0C0C0" stroke="none" x="199" y="311" width="271" height="159" opacity="0.2"/></g><g transform="translate(-182,-14) scale(1,1)"><rect fill="#ffffff" stroke="none" x="192" y="304" width="271" height="159"/></g><g transform="translate(-182,-14) scale(1,1)"><path fill="none" stroke="#000000" d="M 192 304 L 463 304 L 463 463 L 192 463 L 192 304 Z Z" stroke-miterlimit="10"/></g><g transform="translate(-182,-14) scale(1,1)"><path fill="none" stroke="#000000" d="M 192 329 L 463 329" stroke-miterlimit="10"/></g><g transform="translate(-182,-14) scale(1,1)"><path fill="none" stroke="#000000" d="M 192 352 L 463 352" stroke-miterlimit="10"/></g><g transform="translate(-182,-14) scale(1,1)"><g><path fill="none" stroke="none"/><text fill="#000000" stroke="none" font-family="Arial" font-size="13px" font-style="normal" font-weight="bold" text-decoration="none" x="316.66455078125" y="323.5">tray</text></g></g><g transform="translate(-182,-14) scale(1,1)"><g><path fill="none" stroke="none"/><text fill="#000000" stroke="none" font-family="Arial" font-size="13px" font-style="normal" font-weight="normal" text-decoration="none" x="197" y="346.5">-tray[][]: location</text></g></g><g transform="translate(-182,-14) scale(1,1)"><path fill="none" stroke="#000000" d="M 343 263 L 343 288 L 484 288 L 484 383 L 463 383" stroke-miterlimit="10"/></g><g transform="translate(-182,-14) scale(1,1)"><path fill="none" stroke="#000000" d="M 473.16267485762415 378.790482243984 L 463 383 L 473.16267485762415 387.209517756016" stroke-miterlimit="10"/></g><g transform="translate(-182,-14) scale(1,1)"><path fill="none" stroke="#000000" d="M 327 463 L 327 488 L 328 488 L 328 592" stroke-miterlimit="10"/></g><g transform="translate(-182,-14) scale(1,1)"><path fill="none" stroke="#000000" d="M 323.790482243984 581.8373251423759 L 328 592 L 332.209517756016 581.8373251423759" stroke-miterlimit="10"/></g></g></svg>